<svg xmlns="http://www.w3.org/2000/svg" viewBox="0 0 153.45 44.71"><defs><style>.cls-1{fill:#298fce;}.cls-2{fill:#231f20;}</style></defs><title>Asset 1</title><g id="Layer_2" data-name="Layer 2"><g id="Layer_1_copy" data-name="Layer 1 copy"><g id="Header"><g id="Logo"><path class="cls-1" d="M5.57,9.6a4.8,4.8,0,1,1,4.8-4.8A4.8,4.8,0,0,1,5.57,9.6Zm0-8.1a3.3,3.3,0,1,0,3.3,3.3A3.3,3.3,0,0,0,5.57,1.5Z"/><path class="cls-1" d="M34.67,32a4.8,4.8,0,1,1,4.8-4.8A4.81,4.81,0,0,1,34.67,32Zm0-8.1a3.3,3.3,0,1,0,3.3,3.3A3.3,3.3,0,0,0,34.67,23.89Z"/><path class="cls-1" d="M4.8,26.82A4.8,4.8,0,1,1,9.6,22,4.81,4.81,0,0,1,4.8,26.82Zm0-8.1A3.3,3.3,0,1,0,8.1,22,3.3,3.3,0,0,0,4.8,18.72Z"/><path class="cls-1" d="M14.62,44.71a4.8,4.8,0,1,1,4.8-4.8A4.8,4.8,0,0,1,14.62,44.71Zm0-8.1a3.3,3.3,0,1,0,3.3,3.3A3.3,3.3,0,0,0,14.62,36.61Z"/><path class="cls-1" d="M19.74,30.35a6.57,6.57,0,1,1,6.56-6.57A6.58,6.58,0,0,1,19.74,30.35Zm0-11.63a5.07,5.07,0,1,0,5.06,5.06A5.07,5.07,0,0,0,19.74,18.72Z"/><rect class="cls-1" x="4.3" y="8.85" width="1.5" height="9.19"/><rect class="cls-1" x="11.08" y="6.83" width="1.5" height="13.31" transform="translate(-5.68 9.59) rotate(-36.21)"/><rect class="cls-1" x="14.96" y="32.2" width="6" height="1.5" transform="translate(-18.31 42.59) rotate(-76.29)"/><rect class="cls-1" x="8.44" y="25.21" width="1.5" height="12.23" transform="matrix(0.86, -0.51, 0.51, 0.86, -14.71, 9.09)"/><rect class="cls-1" x="10.81" y="20.46" width="1.5" height="4.73" transform="translate(-11.43 34.07) rotate(-89.22)"/><rect class="cls-1" x="27.38" y="22.92" width="1.5" height="4.64" transform="translate(-5.5 42.49) rotate(-69.05)"/><rect class="cls-1" x="17.71" y="34.26" width="15.23" height="1.5" transform="translate(-15.41 20.59) rotate(-34.63)"/><path class="cls-2" d="M63.43,27.74a8.05,8.05,0,0,1-5.71,2.39,8.25,8.25,0,0,1-8.24-8.25,8.25,8.25,0,0,1,8.24-8.26,8.91,8.91,0,0,1,6.07,2.61l-1.56,1.43a6.75,6.75,0,0,0-4.51-1.92,6.15,6.15,0,0,0-6.13,6.14A6.15,6.15,0,0,0,57.72,28a5.64,5.64,0,0,0,3.62-1.15V22h2.09Z"/><path class="cls-2" d="M67.62,21A3.72,3.72,0,0,1,70.5,19.3v2.17a2.73,2.73,0,0,0-1.82.74,3.45,3.45,0,0,0-1.06,2.4V30H65.53V19.57h2.09Z"/><path class="cls-2" d="M74,15.72a1.47,1.47,0,0,1,0,2.08,1.45,1.45,0,0,1-1,.42,1.43,1.43,0,0,1-1-.42,1.47,1.47,0,0,1,0-2.08,1.43,1.43,0,0,1,1-.42A1.45,1.45,0,0,1,74,15.72Zm0,3.85V30H71.87V19.57Z"/><path class="cls-2" d="M85.14,20.28V13.8h2.1V30h-2.1v-1.3a4.73,4.73,0,0,1-3.52,1.57,5.75,5.75,0,0,1-5.75-5.76,5.74,5.74,0,0,1,5.75-5.75A4.76,4.76,0,0,1,85.14,20.28Zm0,5V23.71a3.34,3.34,0,0,0-1-1.78,3.59,3.59,0,0,0-5.09,0A3.6,3.6,0,0,0,84.16,27,3.35,3.35,0,0,0,85.14,25.25Z"/><path class="cls-2" d="M91.64,13.8l5.24,9.06,5.22-9.06H104V30h-2.09V18.28l-5,8.73-5.06-8.73V30H89.73V13.8Z"/><path class="cls-2" d="M109.73,27.6a2.91,2.91,0,0,0,1.9.47A3.51,3.51,0,0,0,114.19,27l.53-.63,2.09.75a12.8,12.8,0,0,1-1.11,1.4,5.75,5.75,0,0,1-9.81-4.07A5.76,5.76,0,0,1,115.21,20c.17.14.33.29.49.45l.58.64-1,1.06Zm3.49-6.46a3,3,0,0,0-1.59-.27,3.58,3.58,0,0,0-3.59,3.6,3,3,0,0,0,.27,1.59Z"/><path class="cls-2" d="M119.46,19.57v-3.9h2.09v3.9h1.87v2.09h-1.87V30h-2.09v-8.3H117.6V19.57Z"/><path class="cls-2" d="M126.91,21a3.72,3.72,0,0,1,2.88-1.67v2.17a2.73,2.73,0,0,0-1.82.74,3.45,3.45,0,0,0-1.06,2.4V30h-2.09V19.57h2.09Z"/><path class="cls-2" d="M133.24,15.72a1.47,1.47,0,0,1,0,2.08,1.45,1.45,0,0,1-1,.42,1.43,1.43,0,0,1-1-.42,1.45,1.45,0,0,1,0-2.08,1.43,1.43,0,0,1,1-.42A1.45,1.45,0,0,1,133.24,15.72Zm0,3.85V30h-2.09V19.57Z"/><path class="cls-2" d="M143.64,26.39l2.09.75a12.8,12.8,0,0,1-1.11,1.4,5.75,5.75,0,0,1-9.81-4.07,5.75,5.75,0,0,1,9.81-4.07,13.44,13.44,0,0,1,1.11,1.39l-2.09.76c-.27-.32-.45-.54-.54-.63A3.6,3.6,0,0,0,138,27a3.45,3.45,0,0,0,2.54,1.06A3.51,3.51,0,0,0,143.11,27Z"/><path class="cls-2" d="M149.22,27.72a1.2,1.2,0,0,0,.89.37,1.26,1.26,0,0,0,1.25-1.26A1.19,1.19,0,0,0,151,26a7.32,7.32,0,0,0-1.08-.78,7.17,7.17,0,0,1-1.61-1.09,2.84,2.84,0,0,1,2-4.83,2.65,2.65,0,0,1,1.95.79,2.51,2.51,0,0,1,.7,1.24l-2,.59a.85.85,0,0,0-.15-.33.62.62,0,0,0-.48-.19.73.73,0,0,0-.52.22.74.74,0,0,0-.22.52.73.73,0,0,0,.21.52,7.92,7.92,0,0,0,.87.61,8.58,8.58,0,0,1,1.82,1.25,3.36,3.36,0,0,1,0,4.73,3.32,3.32,0,0,1-5.62-1.69l2.08-.44A1.2,1.2,0,0,0,149.22,27.72Z"/></g></g></g></g></svg>