<?xml version="1.0" encoding="utf-8"?>
<!-- Generator: Adobe Illustrator 21.1.0, SVG Export Plug-In . SVG Version: 6.00 Build 0)  -->
<svg version="1.1" id="Layer_1" xmlns="http://www.w3.org/2000/svg" xmlns:xlink="http://www.w3.org/1999/xlink" x="0px" y="0px"
	 viewBox="0 0 2285.564 814.195" style="enable-background:new 0 0 2285.564 814.195;" xml:space="preserve">
<style type="text/css">
	.st0{fill:#EE7F31;}
	.st1{fill:#FCD576;}
	.st2{fill:#F59331;}
	.st3{fill:#D72234;}
	.st4{fill:#7C1327;}
	.st5{fill:#BD2132;}
	.st6{fill:#252260;}
	.st7{fill:#1675AF;}
	.st8{fill:#2FACDE;}
	.st9{fill:#2A3B8E;}
	.st10{fill:#71BD23;}
	.st11{fill:#355D14;}
	.st12{fill:#438A16;}
	.st13{fill:#B6D22B;}
	.st14{fill:#33A8D7;}
</style>
<g id="Mask_Group">
	<path id="path4_fill_2_" class="st0" d="M355.035,0l-0.465,194.024L186.826,96.61L355.035,0z"/>
	<path id="path5_fill" class="st1" d="M186.825,96.6l-0.465,194.024L18.616,193.209L186.825,96.6z"/>
	<path id="path6_fill" class="st2" d="M186.83,96.6l167.744,97.415l-168.209,96.609L186.83,96.6z"/>
	<path id="path7_fill" class="st3" d="M354.654,195.167l0.465-194.024l167.744,97.414L354.654,195.167z"/>
	<path id="path5_fill_2_" class="st4" d="M522.318,291.5l0.465-194.024l167.744,97.414L522.318,291.5z"/>
	<path id="path6_fill_1_" class="st5" d="M522.312,291.5l-167.744-97.415l168.209-96.609L522.312,291.5z"/>
	<path id="path8_fill" class="st6" d="M0.071,619.399l168.231-96.61l-0.476,194.006L0.071,619.399z"/>
	<path id="path9_fill" class="st7" d="M167.821,716.799l168.231-96.61l-0.476,194.006L167.821,716.799z"/>
	<path id="path11_fill" class="st8" d="M167.824,716.798l0.475-194.006l167.755,97.396L167.824,716.798z"/>
	<path id="path8_fill_2_" class="st9" d="M168.231,523.068L0,619.677l0.476-194.006L168.231,523.068z"/>
	<path id="path10_fill_1_" class="st8" d="M168.771,328.8L0.54,425.41l0.476-194.006L168.771,328.8z"/>
	<path id="path11_fill_1_" class="st7" d="M168.769,328.803l-0.475,194.006L0.538,425.413L168.769,328.803z"/>
	<path id="path8_fill_3_" class="st10" d="M713.741,618.3l-167.766-97.415l168.22-96.591L713.741,618.3z"/>
	<path id="path10_fill_2_" class="st11" d="M714.192,424.3l-167.766-97.415l168.22-96.591L714.192,424.3z"/>
	<path id="path11_fill_2_" class="st12" d="M714.194,424.303l-168.22,96.591l0.454-194.006L714.194,424.303z"/>
	<path id="path12_fill" class="st13" d="M545.97,520.899l167.766,97.415l-168.22,96.591L545.97,520.899z"/>
	<path id="path10_fill_4_" class="st13" d="M377.751,617.399l167.766,97.415l-168.22,96.591L377.751,617.399z"/>
	<path id="path11_fill_3_" class="st10" d="M377.749,617.397l168.22-96.591l-0.454,194.006L377.749,617.397z"/>
</g>
<g>
	<path id="tag" class="st14" d="M958.605,656.118c0.273,1.973,0.811,3.447,1.611,4.424c1.465,1.777,3.975,2.666,7.529,2.666
		c2.129,0,3.857-0.234,5.186-0.703c2.519-0.898,3.779-2.568,3.779-5.01c0-1.426-0.625-2.529-1.875-3.311
		c-1.25-0.762-3.213-1.435-5.889-2.021l-4.57-1.025c-4.492-1.016-7.598-2.119-9.316-3.311c-2.91-1.992-4.365-5.107-4.365-9.346
		c0-3.867,1.406-7.08,4.219-9.639s6.943-3.838,12.393-3.838c4.551,0,8.428,1.211,11.631,3.633c3.223,2.402,4.913,5.898,5.069,10.488
		h-8.672c-0.156-2.598-1.289-4.443-3.398-5.537c-1.406-0.723-3.154-1.084-5.244-1.084c-2.324,0-4.18,0.469-5.566,1.406
		c-1.387,0.938-2.08,2.246-2.08,3.926c0,1.543,0.684,2.695,2.051,3.457c0.879,0.508,2.754,1.103,5.625,1.787l7.441,1.787
		c3.262,0.781,5.723,1.826,7.383,3.135c2.578,2.031,3.867,4.971,3.867,8.818c0,3.945-1.514,7.227-4.541,9.844
		c-3.008,2.598-7.266,3.896-12.773,3.896c-5.625,0-10.049-1.279-13.271-3.838c-3.223-2.578-4.834-6.113-4.834-10.606H958.605z
		 M1020.193,663.003c3.575,0,6.407-1.318,8.496-3.955c2.11-2.637,3.164-6.387,3.164-11.25c0-4.844-1.054-8.584-3.164-11.221
		c-2.089-2.656-4.921-3.984-8.496-3.984c-3.574,0-6.425,1.318-8.554,3.955c-2.129,2.637-3.194,6.387-3.194,11.25
		c0,4.863,1.065,8.613,3.194,11.25C1013.768,661.684,1016.619,663.003,1020.193,663.003z M1040.877,647.798
		c0,7.754-2.178,13.691-6.533,17.812c-3.262,3.359-7.979,5.039-14.151,5.039c-6.172,0-10.888-1.68-14.15-5.039
		c-4.375-4.121-6.563-10.059-6.563-17.812c0-7.91,2.188-13.848,6.563-17.812c3.262-3.359,7.978-5.039,14.15-5.039
		c6.172,0,10.889,1.68,14.151,5.039C1038.699,633.95,1040.877,639.888,1040.877,647.798z M1056.791,626.265h9.023v35.42h21.387
		v7.764h-30.41V626.265z M1114.277,653.13h10.957l-5.39-16.992L1114.277,653.13z M1114.834,626.265h10.195l15.293,43.184h-9.785
		l-2.783-8.877h-15.908l-2.989,8.877h-9.433L1114.834,626.265z M1163.853,633.765v11.602h10.225c2.031,0,3.555-0.234,4.57-0.703
		c1.797-0.82,2.696-2.441,2.696-4.863c0-2.617-0.869-4.375-2.608-5.273c-0.976-0.508-2.441-0.762-4.394-0.762H1163.853z
		 M1176.217,626.265c3.027,0.059,5.351,0.43,6.972,1.113c1.641,0.684,3.028,1.689,4.161,3.018c0.937,1.094,1.679,2.305,2.226,3.633
		s0.82,2.842,0.82,4.541c0,2.051-0.517,4.072-1.552,6.064c-1.035,1.973-2.744,3.369-5.127,4.19c1.992,0.801,3.398,1.943,4.218,3.428
		c0.84,1.465,1.26,3.711,1.26,6.738v2.9c0,1.973,0.078,3.311,0.235,4.014c0.234,1.113,0.781,1.934,1.64,2.461v1.084h-9.931
		c-0.274-0.957-0.469-1.729-0.586-2.315c-0.235-1.211-0.362-2.451-0.381-3.721l-0.059-4.014c-0.039-2.754-0.547-4.59-1.523-5.508
		c-0.957-0.918-2.764-1.377-5.42-1.377h-9.317v16.934h-8.818v-43.184H1176.217z M1206.076,676.391c1.68-0.469,2.91-1.25,3.692-2.344
		c0.8-1.094,1.259-2.627,1.376-4.6h-5.068v-8.731h9.024v7.559c0,1.328-0.176,2.715-0.528,4.16c-0.351,1.445-1.006,2.695-1.963,3.75
		c-1.035,1.133-2.256,1.982-3.662,2.549c-1.387,0.586-2.344,0.879-2.871,0.879V676.391z M1265.121,656.118
		c0.273,1.973,0.811,3.447,1.611,4.424c1.465,1.777,3.975,2.666,7.53,2.666c2.129,0,3.857-0.234,5.185-0.703
		c2.52-0.898,3.779-2.568,3.779-5.01c0-1.426-0.624-2.529-1.874-3.311c-1.251-0.762-3.213-1.435-5.889-2.021l-4.57-1.025
		c-4.493-1.016-7.598-2.119-9.317-3.311c-2.91-1.992-4.365-5.107-4.365-9.346c0-3.867,1.406-7.08,4.219-9.639
		c2.812-2.559,6.943-3.838,12.392-3.838c4.551,0,8.428,1.211,11.631,3.633c3.223,2.402,4.912,5.898,5.068,10.488h-8.671
		c-0.157-2.598-1.29-4.443-3.399-5.537c-1.406-0.723-3.154-1.084-5.244-1.084c-2.324,0-4.18,0.469-5.566,1.406
		c-1.387,0.938-2.081,2.246-2.081,3.926c0,1.543,0.684,2.695,2.051,3.457c0.879,0.508,2.754,1.103,5.625,1.787l7.442,1.787
		c3.261,0.781,5.722,1.826,7.382,3.135c2.579,2.031,3.868,4.971,3.868,8.818c0,3.945-1.514,7.227-4.541,9.844
		c-3.008,2.598-7.266,3.896-12.774,3.896c-5.625,0-10.049-1.279-13.271-3.838c-3.223-2.578-4.834-6.113-4.834-10.606H1265.121z
		 M1338.984,626.265v7.646h-12.92v35.537h-9.082v-35.537h-12.978v-7.646H1338.984z M1372.389,663.003
		c3.574,0,6.406-1.318,8.496-3.955c2.109-2.637,3.164-6.387,3.164-11.25c0-4.844-1.055-8.584-3.164-11.221
		c-2.09-2.656-4.922-3.984-8.496-3.984c-3.575,0-6.426,1.318-8.555,3.955c-2.129,2.637-3.193,6.387-3.193,11.25
		c0,4.863,1.064,8.613,3.193,11.25C1365.963,661.684,1368.814,663.003,1372.389,663.003z M1393.072,647.798
		c0,7.754-2.178,13.691-6.533,17.812c-3.262,3.359-7.979,5.039-14.15,5.039c-6.172,0-10.889-1.68-14.151-5.039
		c-4.375-4.121-6.562-10.059-6.562-17.812c0-7.91,2.187-13.848,6.562-17.812c3.262-3.359,7.979-5.039,14.151-5.039
		c6.171,0,10.888,1.68,14.15,5.039C1390.894,633.95,1393.072,639.888,1393.072,647.798z M1418.01,633.765v11.602h10.224
		c2.032,0,3.555-0.234,4.571-0.703c1.797-0.82,2.695-2.441,2.695-4.863c0-2.617-0.869-4.375-2.607-5.273
		c-0.977-0.508-2.442-0.762-4.395-0.762H1418.01z M1430.373,626.265c3.027,0.059,5.352,0.43,6.973,1.113
		c1.64,0.684,3.027,1.689,4.16,3.018c0.937,1.094,1.679,2.305,2.226,3.633s0.821,2.842,0.821,4.541c0,2.051-0.518,4.072-1.553,6.064
		c-1.035,1.973-2.744,3.369-5.127,4.19c1.992,0.801,3.398,1.943,4.219,3.428c0.84,1.465,1.26,3.711,1.26,6.738v2.9
		c0,1.973,0.078,3.311,0.234,4.014c0.234,1.113,0.781,1.934,1.64,2.461v1.084h-9.931c-0.274-0.957-0.469-1.729-0.586-2.315
		c-0.234-1.211-0.361-2.451-0.381-3.721l-0.059-4.014c-0.039-2.754-0.546-4.59-1.523-5.508c-0.957-0.918-2.764-1.377-5.42-1.377
		h-9.316v16.934h-8.819v-43.184H1430.373z M1473.152,653.13h10.957l-5.39-16.992L1473.152,653.13z M1473.709,626.265h10.195
		l15.293,43.184h-9.785l-2.783-8.877h-15.908l-2.989,8.877h-9.433L1473.709,626.265z M1542.738,639.741
		c-0.683-2.949-2.353-5.01-5.01-6.182c-1.484-0.644-3.134-0.967-4.951-0.967c-3.476,0-6.338,1.318-8.584,3.955
		c-2.226,2.617-3.34,6.562-3.34,11.836c0,5.312,1.211,9.072,3.633,11.279c2.422,2.207,5.176,3.311,8.262,3.311
		c3.027,0,5.508-0.869,7.441-2.607c1.934-1.758,3.125-4.053,3.575-6.885h-9.991v-7.207h17.989v23.174h-5.977l-0.908-5.391
		c-1.738,2.051-3.301,3.496-4.688,4.336c-2.382,1.465-5.312,2.197-8.789,2.197c-5.722,0-10.41-1.982-14.062-5.947
		c-3.809-3.984-5.713-9.434-5.713-16.348c0-6.992,1.924-12.598,5.771-16.816c3.848-4.219,8.936-6.328,15.264-6.328
		c5.488,0,9.893,1.396,13.213,4.189c3.34,2.773,5.254,6.24,5.742,10.4H1542.738z M1601.338,633.911h-22.852v9.17h20.977v7.5h-20.977
		v11.103h23.907v7.764h-32.725v-43.184h31.67V633.911z M1617.31,676.391c1.68-0.469,2.911-1.25,3.692-2.344
		c0.801-1.094,1.26-2.627,1.377-4.6h-5.069v-8.731h9.024v7.559c0,1.328-0.176,2.715-0.527,4.16c-0.352,1.445-1.006,2.695-1.963,3.75
		c-1.035,1.133-2.256,1.982-3.662,2.549c-1.387,0.586-2.344,0.879-2.872,0.879V676.391z M1676.355,656.118
		c0.274,1.973,0.811,3.447,1.612,4.424c1.465,1.777,3.974,2.666,7.529,2.666c2.129,0,3.857-0.234,5.186-0.703
		c2.519-0.898,3.779-2.568,3.779-5.01c0-1.426-0.625-2.529-1.875-3.311c-1.25-0.762-3.213-1.435-5.889-2.021l-4.57-1.025
		c-4.492-1.016-7.598-2.119-9.317-3.311c-2.91-1.992-4.365-5.107-4.365-9.346c0-3.867,1.407-7.08,4.219-9.639
		s6.943-3.838,12.393-3.838c4.55,0,8.427,1.211,11.63,3.633c3.223,2.402,4.913,5.898,5.069,10.488h-8.672
		c-0.156-2.598-1.289-4.443-3.399-5.537c-1.406-0.723-3.154-1.084-5.244-1.084c-2.324,0-4.179,0.469-5.566,1.406
		c-1.387,0.938-2.08,2.246-2.08,3.926c0,1.543,0.683,2.695,2.051,3.457c0.879,0.508,2.754,1.103,5.625,1.787l7.441,1.787
		c3.262,0.781,5.723,1.826,7.383,3.135c2.578,2.031,3.867,4.971,3.867,8.818c0,3.945-1.514,7.227-4.541,9.844
		c-3.008,2.598-7.266,3.896-12.773,3.896c-5.625,0-10.049-1.279-13.272-3.838c-3.223-2.578-4.834-6.113-4.834-10.606H1676.355z
		 M1747.465,626.265h12.978v43.184h-8.408v-29.209c0-0.84,0.01-2.012,0.029-3.516c0.02-1.523,0.03-2.695,0.03-3.516l-8.174,36.24
		h-8.76l-8.115-36.24c0,0.82,0.01,1.992,0.029,3.516c0.02,1.504,0.029,2.676,0.029,3.516v29.209h-8.408v-43.184h13.125l7.852,33.955
		L1747.465,626.265z M1789.629,653.13h10.957l-5.391-16.992L1789.629,653.13z M1790.185,626.265h10.196l15.293,43.184h-9.785
		l-2.784-8.877h-15.908l-2.988,8.877h-9.434L1790.185,626.265z M1839.205,633.765v11.602h10.225c2.031,0,3.554-0.234,4.57-0.703
		c1.797-0.82,2.695-2.441,2.695-4.863c0-2.617-0.869-4.375-2.607-5.273c-0.977-0.508-2.442-0.762-4.395-0.762H1839.205z
		 M1851.568,626.265c3.028,0.059,5.352,0.43,6.973,1.113c1.641,0.684,3.027,1.689,4.16,3.018c0.938,1.094,1.68,2.305,2.227,3.633
		s0.82,2.842,0.82,4.541c0,2.051-0.518,4.072-1.553,6.064c-1.035,1.973-2.744,3.369-5.127,4.19c1.992,0.801,3.399,1.943,4.219,3.428
		c0.84,1.465,1.26,3.711,1.26,6.738v2.9c0,1.973,0.078,3.311,0.234,4.014c0.235,1.113,0.781,1.934,1.641,2.461v1.084h-9.932
		c-0.273-0.957-0.469-1.729-0.586-2.315c-0.234-1.211-0.361-2.451-0.381-3.721l-0.058-4.014c-0.039-2.754-0.547-4.59-1.524-5.508
		c-0.957-0.918-2.763-1.377-5.42-1.377h-9.316v16.934h-8.818v-43.184H1851.568z M1913.914,626.265v7.646h-12.92v35.537h-9.08
		v-35.537h-12.977v-7.646H1913.914z M1985.854,633.911h-22.85v9.17h20.97v7.5h-20.97v11.103h23.9v7.764h-32.72v-43.184h31.67
		V633.911z M2002.794,626.265h9.46l17.2,30.146v-30.146h8.41v43.184h-9.03l-17.63-30.674v30.674h-8.41V626.265z M2087.234,633.911
		h-22.85v9.17h20.97v7.5h-20.97v11.103h23.9v7.764h-32.72v-43.184h31.67V633.911z M2113.344,633.765v11.602h10.22
		c2.03,0,3.56-0.234,4.57-0.703c1.8-0.82,2.7-2.441,2.7-4.863c0-2.617-0.87-4.375-2.61-5.273c-0.98-0.508-2.44-0.762-4.39-0.762
		H2113.344z M2125.704,626.265c3.03,0.059,5.35,0.43,6.97,1.113c1.64,0.684,3.03,1.689,4.16,3.018c0.94,1.094,1.68,2.305,2.23,3.633
		c0.55,1.328,0.82,2.842,0.82,4.541c0,2.051-0.52,4.072-1.55,6.064c-1.04,1.973-2.75,3.369-5.13,4.19
		c1.99,0.801,3.4,1.943,4.22,3.428c0.84,1.465,1.26,3.711,1.26,6.738v2.9c0,1.973,0.08,3.311,0.23,4.014
		c0.24,1.113,0.79,1.934,1.64,2.461v1.084h-9.93c-0.27-0.957-0.47-1.729-0.58-2.315c-0.24-1.211-0.36-2.451-0.38-3.721l-0.06-4.014
		c-0.04-2.754-0.55-4.59-1.53-5.508c-0.95-0.918-2.76-1.377-5.42-1.377h-9.31v16.934h-8.82v-43.184H2125.704z M2185.714,639.741
		c-0.69-2.949-2.36-5.01-5.01-6.182c-1.49-0.644-3.14-0.967-4.95-0.967c-3.48,0-6.34,1.318-8.59,3.955
		c-2.22,2.617-3.34,6.562-3.34,11.836c0,5.312,1.21,9.072,3.63,11.279c2.43,2.207,5.18,3.311,8.27,3.311
		c3.02,0,5.5-0.869,7.44-2.607c1.93-1.758,3.12-4.053,3.57-6.885h-9.99v-7.207h17.99v23.174h-5.98l-0.9-5.391
		c-1.74,2.051-3.31,3.496-4.69,4.336c-2.38,1.465-5.31,2.197-8.79,2.197c-5.72,0-10.41-1.982-14.06-5.947
		c-3.81-3.984-5.72-9.434-5.72-16.348c0-6.992,1.93-12.598,5.78-16.816c3.84-4.219,8.93-6.328,15.26-6.328
		c5.49,0,9.89,1.396,13.21,4.189c3.34,2.773,5.26,6.24,5.74,10.4H2185.714z M2237.014,626.265h10.23l-14.45,26.953v16.231h-9.02
		v-16.231l-14.94-26.953h10.63l8.97,18.809L2237.014,626.265z"/>
	<path id="smart_energy_council" class="st6" d="M948.56,334.68c0.775,5.589,2.296,9.768,4.565,12.535
		c4.15,5.035,11.261,7.553,21.333,7.553c6.032,0,10.929-0.664,14.692-1.992c7.139-2.545,10.708-7.277,10.708-14.194
		c0-4.04-1.771-7.166-5.312-9.38c-3.542-2.158-9.103-4.067-16.685-5.727l-12.949-2.905c-12.728-2.878-21.527-6.004-26.396-9.38
		c-8.245-5.645-12.368-14.471-12.368-26.479c0-10.957,3.984-20.06,11.953-27.31c7.969-7.249,19.673-10.874,35.112-10.874
		c12.894,0,23.879,3.431,32.954,10.293c9.131,6.807,13.918,16.712,14.36,29.717h-24.57c-0.443-7.36-3.652-12.59-9.629-15.689
		c-3.984-2.047-8.937-3.071-14.858-3.071c-6.585,0-11.842,1.328-15.771,3.984c-3.929,2.656-5.894,6.364-5.894,11.123
		c0,4.372,1.937,7.637,5.811,9.795c2.49,1.439,7.803,3.127,15.938,5.063l21.084,5.063c9.242,2.214,16.214,5.174,20.918,8.882
		c7.304,5.755,10.957,14.084,10.957,24.985c0,11.178-4.289,20.475-12.867,27.89c-8.522,7.36-20.586,11.04-36.191,11.04
		c-15.938,0-28.472-3.624-37.602-10.874c-9.131-7.304-13.696-17.321-13.696-30.049H948.56z M1124.537,250.095h36.773v122.354
		h-23.824v-82.759c0-2.379,0.028-5.7,0.083-9.961c0.056-4.316,0.083-7.637,0.083-9.961l-23.159,102.681h-24.819l-22.993-102.681
		c0,2.324,0.027,5.645,0.083,9.961c0.055,4.261,0.083,7.581,0.083,9.961v82.759h-23.824V250.095h37.188l22.246,96.206
		L1124.537,250.095z M1218.502,326.213h31.045l-15.274-48.145L1218.502,326.213z M1220.079,250.095h28.887l43.33,122.354h-27.725
		l-7.886-25.151h-45.073l-8.467,25.151h-26.728L1220.079,250.095z M1333.468,271.345v32.871h28.969
		c5.756,0,10.072-0.664,12.95-1.992c5.091-2.324,7.636-6.917,7.636-13.779c0-7.415-2.462-12.396-7.387-14.941
		c-2.767-1.439-6.918-2.158-12.451-2.158H1333.468z M1368.497,250.095c8.577,0.166,15.163,1.217,19.756,3.154
		c4.648,1.937,8.577,4.787,11.787,8.55c2.656,3.099,4.759,6.53,6.309,10.293c1.549,3.763,2.324,8.052,2.324,12.866
		c0,5.81-1.467,11.538-4.4,17.183c-2.933,5.589-7.775,9.546-14.526,11.87c5.645,2.269,9.629,5.506,11.953,9.712
		c2.38,4.15,3.569,10.514,3.569,19.092v8.218c0,5.589,0.222,9.38,0.665,11.372c0.664,3.154,2.213,5.479,4.648,6.973v3.071h-28.14
		c-0.774-2.712-1.328-4.897-1.66-6.558c-0.664-3.431-1.024-6.945-1.079-10.542l-0.166-11.372
		c-0.111-7.802-1.549-13.004-4.316-15.605c-2.712-2.601-7.831-3.901-15.357-3.901h-26.396v47.978h-24.986V250.095H1368.497z
		 M1519.654,250.095v21.665h-36.606v100.688h-25.733V271.76h-36.772v-21.665H1519.654z M1672.472,271.76h-64.746v25.981h59.433
		v21.25h-59.433v31.46h67.734v21.997h-92.72V250.095h89.732V271.76z M1694.967,250.095h26.811l48.726,85.415v-85.415h23.823v122.354
		h-25.566l-49.971-86.909v86.909h-23.823V250.095z M1908.712,271.76h-64.746v25.981h59.433v21.25h-59.433v31.46h67.734v21.997
		h-92.72V250.095h89.732V271.76z M1957.184,271.345v32.871h28.97c5.76,0,10.08-0.664,12.95-1.992c5.09-2.324,7.64-6.917,7.64-13.779
		c0-7.415-2.46-12.396-7.39-14.941c-2.76-1.439-6.91-2.158-12.45-2.158H1957.184z M1992.214,250.095
		c8.58,0.166,15.17,1.217,19.76,3.154c4.65,1.937,8.58,4.787,11.79,8.55c2.65,3.099,4.76,6.53,6.31,10.293
		c1.54,3.763,2.32,8.052,2.32,12.866c0,5.81-1.47,11.538-4.4,17.183c-2.93,5.589-7.77,9.546-14.53,11.87
		c5.65,2.269,9.63,5.506,11.96,9.712c2.38,4.15,3.57,10.514,3.57,19.092v8.218c0,5.589,0.22,9.38,0.66,11.372
		c0.66,3.154,2.21,5.479,4.65,6.973v3.071h-28.14c-0.78-2.712-1.33-4.897-1.66-6.558c-0.67-3.431-1.02-6.945-1.08-10.542
		l-0.17-11.372c-0.11-7.802-1.55-13.004-4.31-15.605c-2.71-2.601-7.83-3.901-15.36-3.901h-26.4v47.978h-24.98V250.095H1992.214z
		 M2136.734,288.278c-1.94-8.356-6.67-14.194-14.19-17.515c-4.21-1.826-8.89-2.739-14.03-2.739c-9.85,0-17.96,3.735-24.32,11.206
		c-6.31,7.415-9.47,18.594-9.47,33.535c0,15.052,3.43,25.705,10.3,31.958c6.86,6.254,14.66,9.38,23.4,9.38
		c8.58,0,15.61-2.462,21.09-7.387c5.48-4.981,8.85-11.483,10.13-19.507h-28.31v-20.42h50.97v65.659h-16.94l-2.57-15.273
		c-4.93,5.81-9.35,9.905-13.28,12.285c-6.75,4.15-15.05,6.225-24.9,6.225c-16.22,0-29.5-5.617-39.85-16.85
		c-10.79-11.289-16.18-26.729-16.18-46.319c0-19.811,5.45-35.693,16.35-47.647c10.9-11.953,25.32-17.93,43.25-17.93
		c15.55,0,28.02,3.957,37.43,11.87c9.47,7.858,14.89,17.681,16.27,29.468H2136.734z M2256.594,250.095h28.97l-40.92,76.367v45.986
		h-25.57v-45.986l-42.33-76.367h30.13l25.4,53.291L2256.594,250.095z M1314.34,449.03c10.898,0,19.355,2.871,25.371,8.613
		c6.015,5.743,9.355,12.266,10.019,19.571h-11.367c-1.289-5.547-3.867-9.942-7.734-13.184c-3.828-3.242-9.219-4.863-16.172-4.863
		c-8.477,0-15.332,2.988-20.566,8.965c-5.196,5.937-7.793,15.058-7.793,27.363c0,10.078,2.343,18.262,7.031,24.551
		c4.726,6.25,11.758,9.375,21.094,9.375c8.593,0,15.136-3.301,19.629-9.903c2.382-3.476,4.16-8.047,5.332-13.711h11.367
		c-1.016,9.063-4.375,16.661-10.078,22.793c-6.836,7.383-16.055,11.075-27.657,11.075c-10,0-18.398-3.028-25.195-9.082
		c-8.945-8.008-13.418-20.372-13.418-37.09c0-12.696,3.359-23.106,10.078-31.231C1291.547,453.444,1301.566,449.03,1314.34,449.03z
		 M1419.937,449.03c15.196,0,26.446,4.883,33.75,14.648c5.704,7.618,8.555,17.364,8.555,29.239c0,12.851-3.262,23.535-9.785,32.051
		c-7.656,10-18.574,15-32.754,15c-13.242,0-23.652-4.375-31.23-13.125c-6.758-8.438-10.137-19.102-10.137-31.993
		c0-11.64,2.89-21.601,8.672-29.882C1394.43,454.343,1405.406,449.03,1419.937,449.03z M1421.109,529.538
		c10.274,0,17.696-3.672,22.266-11.016c4.609-7.383,6.914-15.859,6.914-25.429c0-10.118-2.656-18.262-7.969-24.434
		c-5.273-6.172-12.5-9.258-21.679-9.258c-8.907,0-16.172,3.067-21.797,9.199c-5.625,6.094-8.438,15.098-8.438,27.012
		c0,9.531,2.403,17.578,7.207,24.141C1402.457,526.276,1410.289,529.538,1421.109,529.538z M1506.844,451.374v53.203
		c0,6.25,1.172,11.445,3.515,15.586c3.477,6.25,9.336,9.375,17.578,9.375c9.883,0,16.602-3.379,20.157-10.137
		c1.914-3.672,2.871-8.613,2.871-14.824v-53.203h11.836v48.34c0,10.586-1.426,18.73-4.278,24.433
		c-5.234,10.391-15.117,15.586-29.648,15.586s-24.395-5.195-29.59-15.586c-2.851-5.703-4.277-13.847-4.277-24.433v-48.34H1506.844z
		 M1598.906,451.374h13.77l43.476,69.726v-69.726h11.074v86.074h-13.066l-44.121-69.668v69.668h-11.133V451.374z M1739.894,449.03
		c10.899,0,19.356,2.871,25.372,8.613c6.015,5.743,9.355,12.266,10.019,19.571h-11.367c-1.289-5.547-3.867-9.942-7.734-13.184
		c-3.829-3.242-9.219-4.863-16.172-4.863c-8.477,0-15.332,2.988-20.567,8.965c-5.195,5.937-7.793,15.058-7.793,27.363
		c0,10.078,2.344,18.262,7.032,24.551c4.726,6.25,11.757,9.375,21.093,9.375c8.594,0,15.137-3.301,19.629-9.903
		c2.383-3.476,4.16-8.047,5.332-13.711h11.367c-1.015,9.063-4.375,16.661-10.078,22.793c-6.836,7.383-16.054,11.075-27.656,11.075
		c-10,0-18.398-3.028-25.195-9.082c-8.946-8.008-13.418-20.372-13.418-37.09c0-12.696,3.359-23.106,10.078-31.231
		C1717.102,453.444,1727.121,449.03,1739.894,449.03z M1810.98,451.374h11.778v86.074h-11.778V451.374z M1859.742,451.374h11.66
		v75.82h43.594v10.254h-55.254V451.374z"/>
</g>
</svg>
